<svg viewBox="298 151.8175 380 194.3649" width="5000" height="2557.432894736842" xmlns="http://www.w3.org/2000/svg" xmlns:xlink="http://www.w3.org/1999/xlink" preserveAspectRatio="none"><defs></defs><style>.companyName {fill:#282727;fill-opacity:1;}.icon3-str {stroke:#E17350;stroke-opacity:1;}.shape {fill:#F3CCD5;fill-opacity:0.95;}.shapeStroke-str {stroke:#282727;stroke-opacity:0.1;}.text {fill:#282727;fill-opacity:1;}</style><g opacity="1" transform="rotate(0 298 151.8175)">
<svg width="194.3649" height="194.3649" x="298" y="151.8175" version="1.1" preserveAspectRatio="none" viewBox="0 0 194.3649 194.3649">
  <rect x="0" y="0" width="194.3649" height="194.3649" class="shape shapeStroke-str" style="stroke-width:0;" rx="0px" ry="0px" />
</svg>
</g><g opacity="1" transform="rotate(0 335.4499 288.5096)">
<svg width="342.5501" height="20.2229" x="335.4499" y="288.5096" version="1.1" preserveAspectRatio="none" viewBox="0.08 -29.68 637.4 37.64">
  <g transform="matrix(1 0 0 1 0 0)" class="text"><path id="id-6izo4zJp25" d="M25.48 0L22.12-7.48L6.52-7.48L3.16 0L0.08 0L12.88-28L15.80-28L28.60 0L25.48 0ZM7.60-9.88L21.04-9.88L14.32-24.92L7.60-9.88Z M50.40-29.68L53.24-29.68L53.24 0L50.52 0L50.52-4.16Q49.24-2.04 47.14-0.92Q45.04 0.20 42.40 0.20L42.40 0.20Q39.44 0.20 37.04-1.16Q34.64-2.52 33.28-4.96Q31.92-7.40 31.92-10.52L31.92-10.52Q31.92-13.64 33.28-16.08Q34.64-18.52 37.04-19.86Q39.44-21.20 42.40-21.20L42.40-21.20Q44.96-21.20 47.02-20.14Q49.08-19.08 50.40-17.04L50.40-17.04L50.40-29.68ZM42.64-2.32Q44.84-2.32 46.62-3.34Q48.40-4.36 49.42-6.24Q50.44-8.12 50.44-10.52L50.44-10.52Q50.44-12.92 49.42-14.80Q48.40-16.68 46.62-17.70Q44.84-18.72 42.64-18.72L42.64-18.72Q40.40-18.72 38.62-17.70Q36.84-16.68 35.82-14.80Q34.80-12.92 34.80-10.52L34.80-10.52Q34.80-8.12 35.82-6.24Q36.84-4.36 38.62-3.34Q40.40-2.32 42.64-2.32L42.64-2.32Z M77.64-21.04L80.44-21.04L71.08 0L68.16 0L58.84-21.04L61.80-21.04L69.68-3.12L77.64-21.04Z M92.76-21.20Q96.88-21.20 99.08-19.14Q101.28-17.08 101.28-13.04L101.28-13.04L101.28 0L98.56 0L98.56-3.28Q97.60-1.64 95.74-0.72Q93.88 0.20 91.32 0.20L91.32 0.20Q87.80 0.20 85.72-1.48Q83.64-3.16 83.64-5.92L83.64-5.92Q83.64-8.60 85.58-10.24Q87.52-11.88 91.76-11.88L91.76-11.88L98.44-11.88L98.44-13.16Q98.44-15.88 96.92-17.30Q95.40-18.72 92.48-18.72L92.48-18.72Q90.48-18.72 88.64-18.06Q86.80-17.40 85.48-16.24L85.48-16.24L84.20-18.36Q85.80-19.72 88.04-20.46Q90.28-21.20 92.76-21.20L92.76-21.20ZM91.76-2.04Q94.16-2.04 95.88-3.14Q97.60-4.24 98.44-6.32L98.44-6.32L98.44-9.76L91.84-9.76Q86.44-9.76 86.44-6L86.44-6Q86.44-4.16 87.84-3.10Q89.24-2.04 91.76-2.04L91.76-2.04Z M121.32-21.20Q125.28-21.20 127.62-18.90Q129.96-16.60 129.96-12.20L129.96-12.20L129.96 0L127.12 0L127.12-11.92Q127.12-15.20 125.48-16.92Q123.84-18.64 120.80-18.64L120.80-18.64Q117.40-18.64 115.42-16.62Q113.44-14.60 113.44-11.04L113.44-11.04L113.44 0L110.60 0L110.60-21.04L113.32-21.04L113.32-17.16Q114.48-19.08 116.54-20.14Q118.60-21.20 121.32-21.20L121.32-21.20Z M148.08 0.20Q144.96 0.20 142.50-1.16Q140.04-2.52 138.64-4.98Q137.24-7.44 137.24-10.52L137.24-10.52Q137.24-13.60 138.64-16.04Q140.04-18.48 142.50-19.84Q144.96-21.20 148.08-21.20L148.08-21.20Q150.80-21.20 152.94-20.14Q155.08-19.08 156.32-17.04L156.32-17.04L154.20-15.60Q153.16-17.16 151.56-17.94Q149.96-18.72 148.08-18.72L148.08-18.72Q145.80-18.72 143.98-17.70Q142.16-16.68 141.14-14.80Q140.12-12.92 140.12-10.52L140.12-10.52Q140.12-8.08 141.14-6.22Q142.16-4.36 143.98-3.34Q145.80-2.32 148.08-2.32L148.08-2.32Q149.96-2.32 151.56-3.08Q153.16-3.84 154.20-5.40L154.20-5.40L156.32-3.96Q155.08-1.92 152.92-0.86Q150.76 0.20 148.08 0.20L148.08 0.20Z M163.48 0L163.48-21.04L166.32-21.04L166.32 0L163.48 0ZM164.92-25.64Q164.04-25.64 163.44-26.24Q162.84-26.84 162.84-27.68L162.84-27.68Q162.84-28.48 163.44-29.08Q164.04-29.68 164.92-29.68L164.92-29.68Q165.80-29.68 166.40-29.10Q167-28.52 167-27.72L167-27.72Q167-26.84 166.40-26.24Q165.80-25.64 164.92-25.64L164.92-25.64Z M186.56-21.20Q190.52-21.20 192.86-18.90Q195.20-16.60 195.20-12.20L195.20-12.20L195.20 0L192.36 0L192.36-11.92Q192.36-15.20 190.72-16.92Q189.08-18.64 186.04-18.64L186.04-18.64Q182.64-18.64 180.66-16.62Q178.68-14.60 178.68-11.04L178.68-11.04L178.68 0L175.84 0L175.84-21.04L178.56-21.04L178.56-17.16Q179.72-19.08 181.78-20.14Q183.84-21.20 186.56-21.20L186.56-21.20Z M221.36-21.04L224.08-21.04L224.08-2.56Q224.08 2.80 221.46 5.38Q218.84 7.96 213.56 7.96L213.56 7.96Q210.64 7.96 208.02 7.10Q205.40 6.24 203.76 4.72L203.76 4.72L205.20 2.56Q206.72 3.92 208.90 4.68Q211.08 5.44 213.48 5.44L213.48 5.44Q217.48 5.44 219.36 3.58Q221.24 1.72 221.24-2.20L221.24-2.20L221.24-4.88Q219.92-2.88 217.78-1.84Q215.64-0.80 213.04-0.80L213.04-0.80Q210.08-0.80 207.66-2.10Q205.24-3.40 203.86-5.74Q202.48-8.08 202.48-11.04L202.48-11.04Q202.48-14 203.86-16.32Q205.24-18.64 207.64-19.92Q210.04-21.20 213.04-21.20L213.04-21.20Q215.72-21.20 217.88-20.12Q220.04-19.04 221.36-17L221.36-17L221.36-21.04ZM213.32-3.32Q215.60-3.32 217.44-4.30Q219.28-5.28 220.30-7.04Q221.32-8.80 221.32-11.04L221.32-11.04Q221.32-13.28 220.30-15.02Q219.28-16.76 217.46-17.74Q215.64-18.72 213.32-18.72L213.32-18.72Q211.04-18.72 209.22-17.76Q207.40-16.80 206.38-15.04Q205.36-13.28 205.36-11.04L205.36-11.04Q205.36-8.80 206.38-7.04Q207.40-5.28 209.22-4.30Q211.04-3.32 213.32-3.32L213.32-3.32Z M281.92-28L284.76-28L275.32 0L272.20 0L264-23.88L255.76 0L252.68 0L243.24-28L246.28-28L254.36-3.92L262.72-28L265.48-28L273.72-3.80L281.92-28Z M298.16 0.20Q295.12 0.20 292.68-1.18Q290.24-2.56 288.84-5Q287.44-7.44 287.44-10.52L287.44-10.52Q287.44-13.60 288.84-16.04Q290.24-18.48 292.68-19.84Q295.12-21.20 298.16-21.20L298.16-21.20Q301.20-21.20 303.64-19.84Q306.08-18.48 307.46-16.04Q308.84-13.60 308.84-10.52L308.84-10.52Q308.84-7.44 307.46-5Q306.08-2.56 303.64-1.18Q301.20 0.20 298.16 0.20L298.16 0.20ZM298.16-2.32Q300.40-2.32 302.18-3.34Q303.96-4.36 304.96-6.24Q305.96-8.12 305.96-10.52L305.96-10.52Q305.96-12.92 304.96-14.80Q303.96-16.68 302.18-17.70Q300.40-18.72 298.16-18.72L298.16-18.72Q295.92-18.72 294.14-17.70Q292.36-16.68 291.34-14.80Q290.32-12.92 290.32-10.52L290.32-10.52Q290.32-8.12 291.34-6.24Q292.36-4.36 294.14-3.34Q295.92-2.32 298.16-2.32L298.16-2.32Z M342.48-21.20Q346.44-21.20 348.70-18.92Q350.96-16.64 350.96-12.20L350.96-12.20L350.96 0L348.12 0L348.12-11.92Q348.12-15.20 346.54-16.92Q344.96-18.64 342.08-18.64L342.08-18.64Q338.80-18.64 336.92-16.62Q335.04-14.60 335.04-11.04L335.04-11.04L335.04 0L332.20 0L332.20-11.92Q332.20-15.20 330.62-16.92Q329.04-18.64 326.12-18.64L326.12-18.64Q322.88-18.64 320.98-16.62Q319.08-14.60 319.08-11.04L319.08-11.04L319.08 0L316.24 0L316.24-21.04L318.96-21.04L318.96-17.20Q320.08-19.12 322.08-20.16Q324.08-21.20 326.68-21.20L326.68-21.20Q329.32-21.20 331.26-20.08Q333.20-18.96 334.16-16.76L334.16-16.76Q335.32-18.84 337.50-20.02Q339.68-21.20 342.48-21.20L342.48-21.20Z M378.72-10.52L378.68-9.64L361.08-9.64Q361.32-6.36 363.60-4.34Q365.88-2.32 369.36-2.32L369.36-2.32Q371.32-2.32 372.96-3.02Q374.60-3.72 375.80-5.08L375.80-5.08L377.40-3.24Q376.00-1.56 373.90-0.68Q371.80 0.20 369.28 0.20L369.28 0.20Q366.04 0.20 363.54-1.18Q361.04-2.56 359.64-5Q358.24-7.44 358.24-10.52L358.24-10.52Q358.24-13.60 359.58-16.04Q360.92-18.48 363.26-19.84Q365.60-21.20 368.52-21.20L368.52-21.20Q371.44-21.20 373.76-19.84Q376.08-18.48 377.40-16.06Q378.72-13.64 378.72-10.52L378.72-10.52ZM368.52-18.76Q365.48-18.76 363.42-16.82Q361.36-14.88 361.08-11.76L361.08-11.76L376.00-11.76Q375.72-14.88 373.66-16.82Q371.60-18.76 368.52-18.76L368.52-18.76Z M396.84-21.20Q400.80-21.20 403.14-18.90Q405.48-16.60 405.48-12.20L405.48-12.20L405.48 0L402.64 0L402.64-11.92Q402.64-15.20 401.00-16.92Q399.36-18.64 396.32-18.64L396.32-18.64Q392.92-18.64 390.94-16.62Q388.96-14.60 388.96-11.04L388.96-11.04L388.96 0L386.12 0L386.12-21.04L388.84-21.04L388.84-17.16Q390.00-19.08 392.06-20.14Q394.12-21.20 396.84-21.20L396.84-21.20Z M430.44-2.56L447.28-2.56L447.28 0L427.48 0L427.48-28L446.68-28L446.68-25.44L430.44-25.44L430.44-15.48L444.92-15.48L444.92-12.96L430.44-12.96L430.44-2.56Z M465.96-21.20Q469.92-21.20 472.26-18.90Q474.60-16.60 474.60-12.20L474.60-12.20L474.60 0L471.76 0L471.76-11.92Q471.76-15.20 470.12-16.92Q468.48-18.64 465.44-18.64L465.44-18.64Q462.04-18.64 460.06-16.62Q458.08-14.60 458.08-11.04L458.08-11.04L458.08 0L455.24 0L455.24-21.04L457.96-21.04L457.96-17.16Q459.12-19.08 461.18-20.14Q463.24-21.20 465.96-21.20L465.96-21.20Z M500.76-21.04L503.48-21.04L503.48-2.56Q503.48 2.80 500.86 5.38Q498.24 7.96 492.96 7.96L492.96 7.96Q490.04 7.96 487.42 7.10Q484.80 6.24 483.16 4.72L483.16 4.72L484.60 2.56Q486.12 3.92 488.30 4.68Q490.48 5.44 492.88 5.44L492.88 5.44Q496.88 5.44 498.76 3.58Q500.64 1.72 500.64-2.20L500.64-2.20L500.64-4.88Q499.32-2.88 497.18-1.84Q495.04-0.80 492.44-0.80L492.44-0.80Q489.48-0.80 487.06-2.10Q484.64-3.40 483.26-5.74Q481.88-8.08 481.88-11.04L481.88-11.04Q481.88-14 483.26-16.32Q484.64-18.64 487.04-19.92Q489.44-21.20 492.44-21.20L492.44-21.20Q495.12-21.20 497.28-20.12Q499.44-19.04 500.76-17L500.76-17L500.76-21.04ZM492.72-3.32Q495.00-3.32 496.84-4.30Q498.68-5.28 499.70-7.04Q500.72-8.80 500.72-11.04L500.72-11.04Q500.72-13.28 499.70-15.02Q498.68-16.76 496.86-17.74Q495.04-18.72 492.72-18.72L492.72-18.72Q490.44-18.72 488.62-17.76Q486.80-16.80 485.78-15.04Q484.76-13.28 484.76-11.04L484.76-11.04Q484.76-8.80 485.78-7.04Q486.80-5.28 488.62-4.30Q490.44-3.32 492.72-3.32L492.72-3.32Z M513.04 0L513.04-21.04L515.88-21.04L515.88 0L513.04 0ZM514.48-25.64Q513.60-25.64 513.00-26.24Q512.40-26.84 512.40-27.68L512.40-27.68Q512.40-28.48 513.00-29.08Q513.60-29.68 514.48-29.68L514.48-29.68Q515.36-29.68 515.96-29.10Q516.56-28.52 516.56-27.72L516.56-27.72Q516.56-26.84 515.96-26.24Q515.36-25.64 514.48-25.64L514.48-25.64Z M536.12-21.20Q540.08-21.20 542.42-18.90Q544.76-16.60 544.76-12.20L544.76-12.20L544.76 0L541.92 0L541.92-11.92Q541.92-15.20 540.28-16.92Q538.64-18.64 535.60-18.64L535.60-18.64Q532.20-18.64 530.22-16.62Q528.24-14.60 528.24-11.04L528.24-11.04L528.24 0L525.40 0L525.40-21.04L528.12-21.04L528.12-17.16Q529.28-19.08 531.34-20.14Q533.40-21.20 536.12-21.20L536.12-21.20Z M572.52-10.52L572.48-9.64L554.88-9.64Q555.12-6.36 557.40-4.34Q559.68-2.32 563.16-2.32L563.16-2.32Q565.12-2.32 566.76-3.02Q568.40-3.72 569.60-5.08L569.60-5.08L571.20-3.24Q569.80-1.56 567.70-0.68Q565.60 0.20 563.08 0.20L563.08 0.20Q559.84 0.20 557.34-1.18Q554.84-2.56 553.44-5Q552.04-7.44 552.04-10.52L552.04-10.52Q552.04-13.60 553.38-16.04Q554.72-18.48 557.06-19.84Q559.40-21.20 562.32-21.20L562.32-21.20Q565.24-21.20 567.56-19.84Q569.88-18.48 571.20-16.06Q572.52-13.64 572.52-10.52L572.52-10.52ZM562.32-18.76Q559.28-18.76 557.22-16.82Q555.16-14.88 554.88-11.76L554.88-11.76L569.80-11.76Q569.52-14.88 567.46-16.82Q565.40-18.76 562.32-18.76L562.32-18.76Z M598.28-10.52L598.24-9.64L580.64-9.64Q580.88-6.36 583.16-4.34Q585.44-2.32 588.92-2.32L588.92-2.32Q590.88-2.32 592.52-3.02Q594.16-3.72 595.36-5.08L595.36-5.08L596.96-3.24Q595.56-1.56 593.46-0.68Q591.36 0.20 588.84 0.20L588.84 0.20Q585.60 0.20 583.10-1.18Q580.60-2.56 579.20-5Q577.80-7.44 577.80-10.52L577.80-10.52Q577.80-13.60 579.14-16.04Q580.48-18.48 582.82-19.84Q585.16-21.20 588.08-21.20L588.08-21.20Q591.00-21.20 593.32-19.84Q595.64-18.48 596.96-16.06Q598.28-13.64 598.28-10.52L598.28-10.52ZM588.08-18.76Q585.04-18.76 582.98-16.82Q580.92-14.88 580.64-11.76L580.64-11.76L595.56-11.76Q595.28-14.88 593.22-16.82Q591.16-18.76 588.08-18.76L588.08-18.76Z M608.40-16.92Q609.40-19.04 611.38-20.12Q613.36-21.20 616.28-21.20L616.28-21.20L616.28-18.44L615.60-18.48Q612.28-18.48 610.40-16.44Q608.52-14.40 608.52-10.72L608.52-10.72L608.52 0L605.68 0L605.68-21.04L608.40-21.04L608.40-16.92Z M628.80 0.20Q626.24 0.20 623.90-0.54Q621.56-1.28 620.24-2.40L620.24-2.40L621.52-4.64Q622.84-3.60 624.84-2.94Q626.84-2.28 629.00-2.28L629.00-2.28Q631.88-2.28 633.26-3.18Q634.64-4.08 634.64-5.72L634.64-5.72Q634.64-6.88 633.88-7.54Q633.12-8.20 631.96-8.54Q630.80-8.88 628.88-9.20L628.88-9.20Q626.32-9.68 624.76-10.18Q623.20-10.68 622.10-11.88Q621.00-13.08 621.00-15.20L621.00-15.20Q621.00-17.84 623.20-19.52Q625.40-21.20 629.32-21.20L629.32-21.20Q631.36-21.20 633.40-20.66Q635.44-20.12 636.76-19.24L636.76-19.24L635.52-16.96Q632.92-18.76 629.32-18.76L629.32-18.76Q626.60-18.76 625.22-17.80Q623.84-16.84 623.84-15.28L623.84-15.28Q623.84-14.08 624.62-13.36Q625.40-12.64 626.56-12.30Q627.72-11.96 629.76-11.60L629.76-11.60Q632.28-11.12 633.80-10.64Q635.32-10.16 636.40-9Q637.48-7.84 637.48-5.80L637.48-5.80Q637.48-3.04 635.18-1.42Q632.88 0.20 628.80 0.20L628.80 0.20Z"/></g>
</svg>
</g><g opacity="1" transform="rotate(0 335.4499 189.2674)">
<svg width="337.622" height="84.2622" x="335.4499" y="189.2674" version="1.1" preserveAspectRatio="none" viewBox="1.56 -27.6 142.64 35.6">
  <g transform="matrix(1 0 0 1 0 0)" class="companyName"><path id="id-D6z1nYkh6" d="M15.08 0.48Q9.60 0.48 7.14-1.78Q4.68-4.04 4.68-9.12L4.68-9.12L4.68-22.80Q4.68-23.84 4.48-24.28Q4.28-24.72 3.66-24.90Q3.04-25.08 1.56-25.08L1.56-25.08L1.56-26.40L12.72-26.40L12.72-25.08Q11.24-25.08 10.60-24.90Q9.96-24.72 9.76-24.28Q9.56-23.84 9.56-22.80L9.56-22.80L9.56-9.04Q9.56-5.16 11.02-3.16Q12.48-1.16 15.28-1.16L15.28-1.16Q20.92-1.16 20.92-9.04L20.92-9.04L20.92-22.80Q20.92-23.84 20.72-24.28Q20.52-24.72 19.90-24.90Q19.28-25.08 17.80-25.08L17.80-25.08L17.80-26.40L28.96-26.40L28.96-25.08Q27.44-25.08 26.80-24.92Q26.16-24.76 25.98-24.30Q25.80-23.84 25.80-22.80L25.80-22.80L25.80-9.12Q25.80-4.12 23.22-1.82Q20.64 0.48 15.08 0.48L15.08 0.48Z M45.16-19.20Q48.60-19.20 50.50-16.86Q52.40-14.52 52.40-10L52.40-10Q52.40-4.88 49.96-2.22Q47.52 0.44 42.96 0.44L42.96 0.44Q41.96 0.44 41.08 0.28Q40.20 0.12 39.08-0.28L39.08-0.28L39.08 4.72Q39.08 5.56 39.30 5.96Q39.52 6.36 40.18 6.52Q40.84 6.68 42.28 6.68L42.28 6.68L42.28 8L31.92 8L31.92 6.68Q33.12 6.68 33.64 6.52Q34.16 6.36 34.32 5.98Q34.48 5.60 34.48 4.72L34.48 4.72L34.48-15.36Q34.48-16.24 34.18-16.50Q33.88-16.76 32.80-16.76L32.80-16.76L32.08-16.76L32.08-18.12L37.84-19L38.96-19L38.96-16.76L39-16.76Q39.92-17.88 41.62-18.54Q43.32-19.20 45.16-19.20L45.16-19.20ZM42.44-1.16Q44.92-1.16 46.20-3.18Q47.48-5.20 47.48-8.96L47.48-8.96Q47.48-12.68 46.26-14.64Q45.04-16.60 42.76-16.60L42.76-16.60Q41.60-16.60 40.74-16.18Q39.88-15.76 39.08-15.16L39.08-15.16L39.08-2.44Q40.48-1.16 42.44-1.16L42.44-1.16Z M61.92 0L56.96-16Q56.68-16.88 56.18-17.18Q55.68-17.48 54.60-17.48L54.60-17.48L54.60-18.80L63.44-18.80L63.44-17.48L62.32-17.48Q61.88-17.48 61.68-17.34Q61.48-17.20 61.48-16.80L61.48-16.80Q61.48-16.52 61.60-16.08L61.60-16.08L64.52-5.04L64.60-5.04L68.40-18.68L71.28-18.68L75.44-5.04L75.52-5.04L78.52-16.16Q78.56-16.36 78.56-16.68L78.56-16.68Q78.56-17.12 78.32-17.30Q78.08-17.48 77.60-17.48L77.60-17.48L76.08-17.48L76.08-18.80L83.36-18.80L83.36-17.48Q82.08-17.48 81.50-17.10Q80.92-16.72 80.68-15.84L80.68-15.84L75.76 0L72.80 0L68.76-11.40L68.56-11.40L64.88 0L61.92 0Z M104.00-1.92L104.40-0.84Q103.52-0.32 102.50 0.04Q101.48 0.40 99.96 0.40L99.96 0.40Q98.32 0.40 97.62-0.12Q96.92-0.64 96.92-2.28L96.92-2.28Q95.56-1.08 94.12-0.34Q92.68 0.40 90.92 0.40L90.92 0.40Q88.76 0.40 87.36-0.64Q85.96-1.68 85.96-3.60L85.96-3.60Q85.96-6.32 88.86-8.38Q91.76-10.44 96.92-11.36L96.92-11.36L96.92-13.80Q96.88-15.48 96.06-16.32Q95.24-17.16 93.20-17.16L93.20-17.16Q92.08-17.16 91.26-16.82Q90.44-16.48 90.44-16.12L90.44-16.12Q90.44-15.76 90.92-15.28L90.92-15.28Q91.24-14.92 91.40-14.64Q91.56-14.36 91.56-13.88L91.56-13.88Q91.56-12.88 90.96-12.30Q90.36-11.72 89.36-11.72L89.36-11.72Q88.32-11.72 87.68-12.36Q87.04-13 87.04-14.04L87.04-14.04Q87.04-15.36 88.02-16.52Q89.00-17.68 90.86-18.38Q92.72-19.08 95.24-19.08L95.24-19.08Q98.44-19.08 99.94-17.76Q101.44-16.44 101.44-13.20L101.44-13.20L101.44-4.32Q101.44-2.76 101.78-2.18Q102.12-1.60 102.88-1.60L102.88-1.60Q103.28-1.60 103.60-1.74Q103.92-1.88 104.00-1.92L104.00-1.92ZM90.48-5Q90.48-2.48 93.44-2.48L93.44-2.48Q95.08-2.48 96.92-3.96L96.92-3.96L96.92-9.80Q93.60-9.08 92.04-7.94Q90.48-6.80 90.48-5L90.48-5Z M118.52-19.24Q120.24-19.24 121.06-18.26Q121.88-17.28 121.88-15.88L121.88-15.88Q121.88-14.56 121.20-13.82Q120.52-13.08 119.28-13.08L119.28-13.08Q118.20-13.08 117.58-13.64Q116.96-14.20 116.96-15.20L116.96-15.20Q116.96-15.80 117.14-16.16Q117.32-16.52 117.62-16.84Q117.92-17.16 117.92-17.28L117.92-17.28Q117.92-17.44 117.80-17.56Q117.68-17.68 117.40-17.68L117.40-17.68Q116.68-17.68 115.80-16.76Q114.92-15.84 114.28-14.30Q113.64-12.76 113.64-11L113.64-11L113.64-3.32Q113.64-2.44 113.86-2.04Q114.08-1.64 114.76-1.48Q115.44-1.32 116.96-1.32L116.96-1.32L116.96 0L106.40 0L106.40-1.32Q107.60-1.32 108.12-1.50Q108.64-1.68 108.80-2.08Q108.96-2.48 108.96-3.32L108.96-3.32L108.96-14.88Q108.96-15.96 108.72-16.34Q108.48-16.72 107.84-16.72L107.84-16.72L106.64-16.72L106.64-18.08L112.40-19L113.52-19L113.52-15.52L113.60-15.52Q115.36-19.24 118.52-19.24L118.52-19.24Z M143.76-1.32L144.20-1.32L144.20 0L137.44 0L137.20-1.72Q135.92-0.80 134.28-0.18Q132.64 0.44 130.92 0.44L130.92 0.44Q127.48 0.44 125.60-2.04Q123.72-4.52 123.72-9L123.72-9Q123.72-14.12 126.18-16.66Q128.64-19.20 133.16-19.20L133.16-19.20Q134.32-19.20 135.12-19.04Q135.92-18.88 137.00-18.56L137.00-18.56L137.04-18.56L137.04-23.48Q137.04-24.56 136.82-24.96Q136.60-25.36 135.88-25.36L135.88-25.36L134.68-25.36L134.68-26.64L140.48-27.60L141.64-27.60L141.64-3.32Q141.64-2.12 142.12-1.72Q142.60-1.32 143.76-1.32L143.76-1.32ZM128.64-9.92Q128.64-2.16 133.44-2.16L133.44-2.16Q134.36-2.16 135.06-2.48Q135.76-2.80 137.04-3.72L137.04-3.72L137.04-16.56Q135.60-17.60 133.64-17.60L133.64-17.60Q131.16-17.60 129.90-15.74Q128.64-13.88 128.64-9.92L128.64-9.92Z"/></g>
</svg>
</g></svg>